PathFileType	4	(x/y/z)	S05_M20_T01
DataRate	CameraRate	NumFrames	NumMarkers	Units	OrigDataRate	OrigDataStartFrame	OrigNumFrames
240	240	4	50	mm	240	339	541
Frame#	Time	Sternum			R.Acromium			L.Acromium			Top.Head			R.ASIS			L.ASIS			R.PSIS			L.PSIS			R.Great.Tro			L.Great.Tro			R.Iliac.Crest			L.Iliac.Crest			V.Sacral			R.Thigh.Upper.Post			R.Thigh.Lower.Ant			R.Thigh.Lower.Post			R.Thigh.Upper.Ant			R.Knee.Lat			R.Knee.Med			R.Shank.Upper.Post			R.Shank.Lower.Ant			R.Shank.Lower.Post			R.Shank.Upper.Ant			R.Ankle.Lat			R.Ankle.Med			R.Heel.Upper			R.Heel.Med			R.Heel.Lat			R.Toe.Lat			R.Toe.Med			R.Toe.Tip			L.Thigh.Upper.Post			L.Thigh.Lower.Ant			L.Thigh.Lower.Post			L.Thigh.Upper.Ant			L.Knee.Lat			L.Shank.Upper.Post			L.Shank.Lower.Ant			L.Shank.Lower.Post			L.Shank.Upper.Ant			L.Ankle.Lat			L.Ankle.Med			L.Heel.Upper			L.Heel.Med			L.Heel.Lat			L.Toe.Lat			L.Toe.Med			L.Toe.Tip			Cervical.Spine			Back			
		X1	Y1	Z1	X2	Y2	Z2	X3	Y3	Z3	X4	Y4	Z4	X5	Y5	Z5	X6	Y6	Z6	X7	Y7	Z7	X8	Y8	Z8	X9	Y9	Z9	X10	Y10	Z10	X11	Y11	Z11	X12	Y12	Z12	X13	Y13	Z13	X14	Y14	Z14	X15	Y15	Z15	X16	Y16	Z16	X17	Y17	Z17	X18	Y18	Z18	X19	Y19	Z19	X20	Y20	Z20	X21	Y21	Z21	X22	Y22	Z22	X23	Y23	Z23	X24	Y24	Z24	X25	Y25	Z25	X26	Y26	Z26	X27	Y27	Z27	X28	Y28	Z28	X29	Y29	Z29	X30	Y30	Z30	X31	Y31	Z31	X32	Y32	Z32	X33	Y33	Z33	X34	Y34	Z34	X35	Y35	Z35	X36	Y36	Z36	X37	Y37	Z37	X38	Y38	Z38	X39	Y39	Z39	X40	Y40	Z40	X41	Y41	Z41	X42	Y42	Z42	X43	Y43	Z43	X44	Y44	Z44	X45	Y45	Z45	X46	Y46	Z46	X47	Y47	Z47	X48	Y48	Z48	X49	Y49	Z49	X50	Y50	Z50	

339	1.4083	989.56	1210.8	366.14	892.04	1473.6	515.78	902.43	1481.3	176.3	877.25	1765.2	321.44	899.15	952.41	500.85	956.72	952.3	256.3	725.99	981.31	367.13	747.93	973.47	277.81	787.39	891.67	540.27	898.69	876.99	158.72	809.34	1044.8	516.37	876.35	1027.9	185.83	718.01	945.97	333.49	763	664.7	532.06	794.58	576.29	490.81	724.27	586.66	506.31	829.83	654.63	518.74	675.77	502.32	483.42	698.84	483.07	352.55	492.18	325.68	452.57	515.65	238.16	452.91	458.71	259.61	430.33	551.36	304.99	472.49	450.11	155.57	427.2	486.41	174.38	342.05	369.95	126.42	361.03	373.21	92.365	332.56	367.48	96.097	397.58	516.46	36.443	462.87	561.61	39.222	345.68	621.65	43.419	394.93	995.67	655.3	163.98	1093	623.63	205.97	1043	575.1	185.45	1053.3	703.85	187.54	1094.6	507.04	196.29	1122.5	298.72	191.7	1208.6	276.18	196	1152.7	233.41	209.85	1175.4	338.19	184.17	1245.9	126.59	214.53	1271.1	155.18	299.88	1226.8	51.155	268.13	1251.4	37.857	301.61	1243.4	29.439	240.48	1396.6	120.98	182.71	1409.1	149.05	299.14	1452.4	194.4	243.94	838.09	1513	351.14	723.21	1233	343.02
340	1.4125	996.22	1210.4	365.72	898.26	1473.3	514.93	908.85	1480.6	175.42	883.29	1764.7	320.13	905.53	951.99	500.52	963.79	951.89	256.11	732.78	980.75	366.17	754.92	973.02	276.89	793.51	891.32	539.61	906.06	876.52	158.39	815.42	1044.4	515.66	883.59	1027.4	185.37	724.91	945.43	332.48	768.6	664.59	532.07	800.17	575.94	491.3	729.82	586.51	506.51	835.46	654.33	519.04	681.11	502.25	483.82	704.66	482.42	353.23	496.01	327.3	452.81	518.61	239.55	453.3	461.93	261.55	430.53	554.91	306.04	472.92	452.21	157.59	427.61	488.87	175.88	342.66	371.99	129.71	361.48	374.76	95.775	332.81	369.01	99.246	397.83	516.77	36.656	462.94	561.93	39.361	345.76	621.82	43.236	394.91	1002.1	654.56	163.88	1099.3	622.43	205.76	1049.1	574.14	185.4	1060.1	702.82	187.21	1100.5	505.96	196.3	1126.8	297.47	192.02	1212.6	274.2	196.48	1156.3	231.9	210.15	1180	336.51	184.57	1248.5	124.43	214.86	1273.8	152.58	300.36	1228.3	50.185	268.3	1252.3	36.27	301.78	1244.4	28.191	240.62	1399.1	116.91	183.44	1411.8	144.44	299.93	1455.9	189.3	244.97	844.34	1512.5	350.19	729.76	1232.4	342.23
341	1.4167	1002.9	1210.1	365.29	904.51	1473.1	514.08	915.28	1479.9	174.54	889.35	1764.3	318.81	911.98	951.62	500.17	970.86	951.55	255.88	739.6	980.24	365.23	761.91	972.66	275.96	799.71	891	538.96	913.41	876.13	158.04	821.62	1043.9	514.97	890.84	1027	184.89	731.84	944.95	331.49	774.34	664.5	532.1	805.94	575.62	491.82	735.55	586.37	506.75	841.25	654.08	519.36	686.67	502.18	484.28	710.69	481.74	353.98	500.02	328.98	453.09	521.73	241	453.73	465.33	263.56	430.75	558.64	307.13	473.39	454.45	159.68	428.05	491.49	177.44	343.32	374.22	133.15	361.95	376.47	99.361	333.07	370.69	102.56	398.09	517.1	36.907	463	562.27	39.522	345.84	621.98	43.058	394.88	1008.4	653.87	163.77	1105.5	621.28	205.49	1055	573.23	185.33	1066.7	701.85	186.83	1106.3	504.95	196.26	1131.1	296.31	192.34	1216.7	272.35	196.92	1160	230.52	210.47	1184.7	334.94	184.93	1251.2	122.43	215.16	1276.7	150.16	300.8	1229.7	49.502	268.48	1253.3	34.948	301.95	1245.3	27.205	240.76	1401.6	112.88	184.09	1414.6	139.89	300.61	1459.4	184.19	245.87	850.61	1512	349.22	736.35	1231.9	341.43
342	1.4208	1009.7	1209.9	364.84	910.78	1472.9	513.21	921.75	1479.3	173.64	895.43	1763.9	317.49	918.49	951.32	499.78	977.93	951.28	255.61	746.45	979.8	364.31	768.89	972.37	275.06	806	890.71	538.3	920.72	875.84	157.65	827.93	1043.6	514.28	898.09	1026.7	184.39	738.79	944.53	330.52	780.25	664.42	532.14	811.91	575.33	492.37	741.48	586.22	507.02	847.19	653.87	519.69	692.44	502.09	484.78	716.95	481.03	354.81	504.26	330.7	453.41	525.03	242.51	454.21	468.92	265.63	431	562.56	308.25	473.91	456.86	161.87	428.53	494.28	179.06	344.02	376.66	136.75	362.45	378.36	103.13	333.35	372.53	106.03	398.37	517.46	37.206	463.07	562.63	39.711	345.93	622.15	42.883	394.85	1014.7	653.27	163.64	1111.7	620.21	205.18	1060.9	572.41	185.24	1073.3	700.95	186.4	1112	504.04	196.18	1135.4	295.28	192.66	1220.8	270.65	197.33	1163.8	229.28	210.78	1189.3	333.5	185.26	1253.9	120.6	215.42	1279.6	147.92	301.2	1231.2	49.095	268.67	1254.2	33.888	302.11	1246.3	26.475	240.9	1404	108.91	184.65	1417.4	135.4	301.2	1463	179.07	246.65	856.91	1511.7	348.25	742.98	1231.4	340.63
